<?xml version="1.0" encoding="UTF-8" standalone="no"?>
<!-- Created with Inkscape (http://www.inkscape.org/) -->

<svg
   xmlns:dc="http://purl.org/dc/elements/1.1/"
   xmlns:cc="http://creativecommons.org/ns#"
   xmlns:rdf="http://www.w3.org/1999/02/22-rdf-syntax-ns#"
   xmlns:svg="http://www.w3.org/2000/svg"
   xmlns="http://www.w3.org/2000/svg"
   xmlns:xlink="http://www.w3.org/1999/xlink"
   xmlns:sodipodi="http://sodipodi.sourceforge.net/DTD/sodipodi-0.dtd"
   xmlns:inkscape="http://www.inkscape.org/namespaces/inkscape"
   width="32.118279mm"
   height="36.355762mm"
   viewBox="0 0 113.80492 128.81963"
   id="svg2"
   version="1.1"
   inkscape:version="0.91 r13725"
   sodipodi:docname="SNOWFLAKE.svg">
  <defs
     id="defs4">
    <linearGradient
       inkscape:collect="always"
       id="linearGradient9708">
      <stop
         style="stop-color:#ffffff;stop-opacity:1"
         offset="0"
         id="stop9710" />
      <stop
         style="stop-color:#cdcdff;stop-opacity:1"
         offset="1"
         id="stop9712" />
    </linearGradient>
    <inkscape:path-effect
       effect="powerstroke"
       id="path-effect8113"
       is_visible="true"
       offset_points="0,0.5"
       sort_points="true"
       interpolator_type="Linear"
       interpolator_beta="0.2"
       start_linecap_type="zerowidth"
       linejoin_type="round"
       miter_limit="4"
       end_linecap_type="zerowidth"
       cusp_linecap_type="round" />
    <inkscape:path-effect
       effect="powerstroke"
       id="path-effect7902"
       is_visible="true"
       offset_points="0,0.5"
       sort_points="true"
       interpolator_type="Linear"
       interpolator_beta="0.2"
       start_linecap_type="zerowidth"
       linejoin_type="round"
       miter_limit="4"
       end_linecap_type="zerowidth"
       cusp_linecap_type="round" />
    <inkscape:path-effect
       effect="powerstroke"
       id="path-effect4463"
       is_visible="true"
       offset_points="0.17982456,2.2841785"
       sort_points="true"
       interpolator_type="Linear"
       interpolator_beta="0.2"
       start_linecap_type="zerowidth"
       linejoin_type="round"
       miter_limit="4"
       end_linecap_type="zerowidth"
       cusp_linecap_type="round" />
    <inkscape:path-effect
       effect="powerstroke"
       id="path-effect4459"
       is_visible="true"
       offset_points="0,0.5"
       sort_points="true"
       interpolator_type="Linear"
       interpolator_beta="0.2"
       start_linecap_type="zerowidth"
       linejoin_type="round"
       miter_limit="4"
       end_linecap_type="zerowidth"
       cusp_linecap_type="round" />
    <inkscape:path-effect
       effect="powerstroke"
       id="path-effect4463-8"
       is_visible="true"
       offset_points="0.17982456,1.9548752"
       sort_points="true"
       interpolator_type="Linear"
       interpolator_beta="0.2"
       start_linecap_type="zerowidth"
       linejoin_type="round"
       miter_limit="4"
       end_linecap_type="zerowidth"
       cusp_linecap_type="round" />
    <radialGradient
       inkscape:collect="always"
       xlink:href="#linearGradient9708"
       id="radialGradient9714"
       cx="-149.49564"
       cy="-53.854168"
       fx="-149.49564"
       fy="-53.854168"
       r="128.23283"
       gradientTransform="matrix(0.43067272,0,0,0.48822972,5253.1754,1958.5032)"
       gradientUnits="userSpaceOnUse" />
  </defs>
  <sodipodi:namedview
     id="base"
     pagecolor="#ffffff"
     bordercolor="#666666"
     borderopacity="1.0"
     inkscape:pageopacity="0.0"
     inkscape:pageshadow="2"
     inkscape:zoom="0.35228797"
     inkscape:cx="260.26334"
     inkscape:cy="-14.137753"
     inkscape:document-units="px"
     inkscape:current-layer="layer1"
     showgrid="false"
     fit-margin-top="0"
     fit-margin-left="0"
     fit-margin-right="0"
     fit-margin-bottom="0"
     inkscape:window-width="1366"
     inkscape:window-height="745"
     inkscape:window-x="-8"
     inkscape:window-y="-8"
     inkscape:window-maximized="1" />
  <metadata
     id="metadata7">
    <rdf:RDF>
      <cc:Work
         rdf:about="">
        <dc:format>image/svg+xml</dc:format>
        <dc:type
           rdf:resource="http://purl.org/dc/dcmitype/StillImage" />
        <dc:title></dc:title>
      </cc:Work>
    </rdf:RDF>
  </metadata>
  <g
     inkscape:label="Layer 1"
     inkscape:groupmode="layer"
     id="layer1"
     transform="translate(-5131.9378,-1867.838)">
    <path
       style="fill:#000000"
       d="m 5188.0941,1867.8413 c -2.3572,-0.1048 -3.7176,2.3402 -3.2443,4.4506 -0.1304,0.7667 0.6876,3.4074 -0.6486,2.3166 -2.0853,-1.6162 -5.1097,-2.5918 -7.3803,-0.7302 -1.7063,0.7341 -2.937,3.2981 -1.0422,4.5507 2.8996,2.0912 6.4175,3.2328 9.0937,5.645 0.1317,1.2697 0.2246,2.6504 0.05,3.8744 -5.3591,-2.6764 -10.2399,-6.4095 -15.7566,-8.706 -2.8094,-0.1624 -4.8986,2.159 -6.6198,4.0552 5.3823,4.2347 11.7009,7.0457 17.5006,10.643 1.4969,1.0841 3.8542,1.8212 4.7539,3.3387 0.5377,4.0538 -0.2198,8.4223 0.064,12.4677 -1.8242,-1.7785 -4.9422,-2.0594 -6.2338,-4.3135 -0.4084,-3.3976 0.8829,-7.3513 -1.0195,-10.3647 -2.1254,-1.6073 -5.7625,0.1604 -6.3171,2.5369 -0.2333,1.3839 0.024,2.7706 -0.067,4.1402 -2.1147,-1.5715 -5.3674,-3.1739 -7.6175,-0.9026 -1.6406,0.9375 -2.4519,3.5948 -0.4627,4.6373 2.3963,2.0269 5.895,2.8129 7.8918,5.1614 0.3098,2.2729 0.2219,4.5788 0.01,6.8562 -3.7818,-2.0825 -7.6084,-4.1503 -11.1748,-6.5702 -0.3002,-5.4398 -0.064,-10.901 -0.2524,-16.3429 -0.049,-2.7737 0.7992,-6.2123 -0.9454,-8.5386 -2.1164,-1.2225 -4.5161,0.877 -5.8906,2.2821 -1.3944,2.6983 -0.039,5.8342 -0.562,8.7017 -0.1398,3.0312 0.1893,6.8631 -0.291,9.4227 -1.6066,-0.8058 -3.9715,-1.6454 -3.4109,-3.9206 -0.2646,-3.2242 0.7014,-7.0163 -0.9378,-9.8693 -2.1596,-1.5071 -4.4286,0.7471 -6.0951,1.9414 -0.073,1.8103 -0.1441,4.3791 -0.365,5.7173 -2.1274,-1.1398 -4.6995,-3.5486 -7.1861,-2.0238 -2.1054,1.4896 -2.6165,5.445 0.2061,6.4517 0.9108,0.8887 3.1458,1.3287 3.278,2.1727 -2.5514,1.0494 -5.7633,2.9535 -5.1958,6.2052 -0.1345,2.0326 2.0234,4.0608 3.9358,2.6698 3.045,-1.3408 5.676,-3.5921 8.8313,-4.6347 1.2782,0.5184 2.5663,1.1589 3.6414,1.9893 -5.072,3.3812 -10.9839,5.5401 -15.696,9.4209 -1.2753,1.9044 -1.1538,5.6373 1.3273,6.3508 2.8128,0.1604 4.8574,-2.4728 7.3646,-3.3642 4.7144,-2.6909 9.4157,-5.4903 14.2321,-7.9426 3.8504,2.0951 7.6951,4.2072 11.4204,6.5198 -1.9883,1.0736 -3.9539,2.9384 -6.1387,3.2653 -3.1472,-1.4183 -6.0382,-4.3042 -9.5699,-4.6415 -3.5136,0.9873 -3.6034,6.9805 -0.196,8.1963 1.0524,0.5645 2.974,1.2773 0.9102,1.8674 -2.3771,0.9543 -4.2936,3.4432 -3.2637,6.0723 0.3511,2.1881 3.037,2.9597 4.6482,1.5039 2.4245,-1.2463 4.6332,-2.9333 7.2365,-3.8121 2.1589,1.0208 4.2236,2.1223 6.1859,3.4564 -3.734,2.2626 -7.4625,4.5331 -11.3759,6.4314 -7.1399,-3.4813 -13.6303,-8.3672 -20.843,-11.6795 -2.9303,-0.1135 -3.2447,3.8919 -2.4326,5.9336 1.5259,2.8091 5.0504,3.45 7.3939,5.3821 2.5433,1.6545 6.1417,3.1516 8.0026,5.018 -1.591,1.1429 -3.6176,2.4016 -5.3185,0.6878 -2.8346,-1.3346 -5.4549,-3.8821 -8.606,-4.1223 -2.4671,0.8287 -1.9448,4.3558 -1.4603,6.1152 1.1373,1.5881 3.7797,2.3022 4.5818,3.4917 -2.0264,1.1098 -5.7562,2.3445 -4.9998,5.2951 0.5416,2.5508 3.7796,4.3516 5.936,2.3838 0.9317,-0.2344 3.1173,-2.5319 3.1291,-1.0489 -0.2713,2.6513 0.034,6.1 3.0492,7.0497 1.5206,1.0765 3.9986,0.3346 3.9703,-1.7479 0.497,-3.352 -0.3233,-6.778 0.4046,-10.1057 1.1426,-0.6627 2.2595,-1.4661 3.4572,-1.975 0.3362,5.8425 -0.2947,11.9026 0.4441,17.6946 1.271,1.8413 4.0755,4.0605 6.2288,2.6429 1.7843,-2.4071 0.4373,-5.632 0.918,-8.3687 0.015,-5.4098 -0.2903,-10.8752 0.091,-16.2099 3.5942,-2.4153 7.5858,-4.1674 11.1756,-6.593 -0.3362,2.6205 0.6898,5.7074 -0.5762,8.0263 -2.7797,1.9432 -6.5281,3.0519 -8.6,5.7081 -0.4101,2.5988 2.6676,4.767 4.9956,4.5237 1.5412,-0.2234 2.97,-1.4806 4.1654,-1.9069 -0.3575,2.4464 -0.2621,5.7693 2.5765,6.6797 1.868,1.064 4.9916,0.2268 4.7458,-2.3367 0.4181,-2.923 -0.5952,-6.1125 0.5198,-8.8247 1.8339,-1.3159 3.796,-2.4473 5.8251,-3.4335 -0.1577,4.3575 0.3307,8.8815 -0.3609,13.1304 -6.3946,4.2559 -13.5802,7.2749 -19.8648,11.6778 -1.7532,2.0508 0.9858,4.1678 2.8415,4.6937 3.0705,1.1567 5.5631,-1.8746 8.1979,-2.9045 2.9808,-1.7107 5.9054,-3.5392 9.0382,-4.9671 0.1107,2.08 0.6351,5.0805 -2.0703,5.6341 -2.5254,1.4996 -5.9529,2.5609 -7.3809,5.1815 -0.056,2.5802 3.1167,3.9704 5.2992,3.9442 1.6343,-0.041 3.3299,-1.8924 4.433,-1.9077 -0.047,2.3742 -0.9374,6.4716 2.2686,7.1792 2.0837,0.6985 5.2485,-0.096 5.1436,-2.7682 0.1968,-1.4961 0,-3.0043 0.046,-4.5053 2.2707,1.5487 5.4262,3.2427 7.9574,1.2138 1.8543,-0.7289 2.6582,-3.6972 0.5518,-4.6507 -2.7224,-1.9426 -5.8918,-3.2234 -8.4806,-5.3405 -0.066,-1.1202 -0.5906,-3.7626 0.3094,-3.8356 5.1697,2.5335 9.8238,6.1777 15.2041,8.2264 2.2704,0.2683 5.1915,-1.3224 5.4692,-3.6052 -0.8316,-3.0503 -4.6504,-3.3684 -6.7734,-5.2159 -4.7045,-2.7482 -9.5685,-5.2363 -14.0915,-8.2864 -0.5285,-4.2806 -0.1886,-8.7229 -0.1237,-13.08 1.9917,1.4882 4.7186,2.0599 6.2818,4.0158 0.5246,3.575 -0.6915,7.7376 1.0615,10.9972 2.8184,1.6932 7.2473,-0.9396 6.7923,-4.3126 0.1311,-0.9032 -0.6469,-3.3382 0.8476,-1.9022 1.9817,1.5917 5.0511,2.2311 6.9172,0.081 1.8114,-1.2862 2.0718,-4.3479 -0.2423,-5.2816 -2.439,-1.6734 -5.2188,-2.7756 -7.5535,-4.6079 0.024,-2.2587 -0.049,-4.5182 0.028,-6.7763 3.6725,2.1717 7.7562,4.0399 11.0267,6.6586 -0.3898,6.2156 0.01,12.5225 0.072,18.7771 0.4441,2.0283 -0.8073,5.7499 2.0348,6.1977 1.9978,0 4.3099,-1.4225 4.8585,-3.2923 0.5624,-4.4603 -0.053,-8.996 0.2641,-13.4846 0.4365,-1.0113 -0.8633,-5.0876 1.0429,-3.5754 1.3698,0.8327 3.6312,1.4629 3.035,3.4635 0.226,3.1461 -0.8415,6.8789 0.9447,9.6532 2.0689,1.5202 5.2002,-0.4404 5.952,-2.5008 0.6208,-1.4899 0.053,-3.8389 0.5257,-4.8703 2.112,1.0645 4.8957,3.7834 7.2315,1.9599 1.9519,-1.393 3.1144,-4.9429 0.4727,-6.2902 -0.9777,-0.7708 -2.7126,-1.3777 -3.3117,-2.0962 2.4175,-1.0803 5.0581,-3.0952 4.512,-6.0975 0.1741,-1.8521 -1.7055,-3.8593 -3.5438,-2.7228 -3.0526,1.2665 -5.6019,3.5159 -8.7312,4.6171 -1.3014,-0.6422 -2.611,-1.2868 -3.8079,-2.113 5.0416,-3.211 10.7412,-5.5119 15.3789,-9.2864 1.1398,-1.805 1.0999,-4.8744 -0.636,-6.1489 -2.6426,-1.0032 -4.6617,1.8874 -6.9816,2.6082 -5.0479,2.82 -10.066,5.698 -15.1988,8.3631 -3.8522,-2.0373 -7.5502,-4.3482 -11.3346,-6.5047 2.1317,-1.1452 4.3127,-3.1238 6.7073,-3.368 3.3643,1.3123 6.1916,4.5035 9.8879,4.6129 2.1712,-0.8118 2.0625,-3.8831 1.7614,-5.6274 -0.8942,-1.8174 -3.0696,-2.6169 -4.5263,-3.6026 2.1509,-0.954 5.3476,-2.4179 4.6751,-5.3919 0.047,-2.0452 -1.8677,-4.5516 -4.0493,-3.2494 -2.9218,1.165 -5.2359,3.3611 -8.256,4.2756 -2.1761,-1.0929 -4.3085,-2.2765 -6.3608,-3.5883 3.676,-2.3362 7.4066,-4.39 11.3119,-6.2902 7.0738,3.3651 13.462,7.9745 20.5141,11.3985 1.6319,0.7411 3.8838,-0.6636 3.1039,-2.5529 0.3652,-2.0814 -0.064,-4.7369 -2.3747,-5.4544 -4.4263,-2.7718 -9.0707,-5.1732 -13.5232,-7.9015 1.5672,-1.0108 3.5845,-2.9216 5.3675,-1.1995 2.9575,1.494 5.7709,4.2719 9.2619,4.1427 2.1568,-0.8728 1.1805,-3.7873 1.1138,-5.481 -0.8054,-1.9478 -2.9136,-2.773 -4.6062,-3.7616 2.0097,-1.5176 5.5045,-2.2064 5.6887,-5.2354 -0.4041,-2.2685 -2.6239,-5.143 -5.1563,-3.6313 -1.5939,0.6487 -3.2922,2.0667 -4.6575,2.3906 0.1354,-2.5634 0.6532,-6.0154 -2.1819,-7.3803 -1.4003,-1.3883 -4.465,-1.5376 -4.803,0.8849 -0.7596,3.5508 0.057,7.2154 -0.5712,10.7778 -1.1557,0.7071 -2.2605,1.5036 -3.4723,2.1155 -0.2046,-6.1586 0.3131,-12.3405 -0.3499,-18.482 -1.5247,-1.5643 -4.4786,-4.0079 -6.4332,-1.8059 -1.4858,2.4456 -0.191,5.4784 -0.7325,8.1507 -0.066,5.471 0.3942,10.9721 -0.313,16.4187 -3.3267,2.2795 -7.3252,4.5866 -10.6878,6.1017 0.456,-2.4198 -0.5843,-5.1246 0.5703,-7.3585 2.7893,-1.8264 6.2272,-2.8427 8.4671,-5.4506 0.2352,-3.3644 -4.0537,-6.1043 -6.868,-3.8601 -1.0714,0.5365 -2.6643,1.9297 -2.0129,-0.2742 0.4493,-2.4099 -0.6399,-5.1261 -3.2511,-5.6644 -1.8389,-1.0622 -4.4527,0.088 -4.3942,2.3729 -0.6125,3.0233 0.5507,6.3328 -0.5123,9.1712 -1.8495,1.3002 -3.8543,2.357 -5.8561,3.3991 -0.091,-4.3542 -0.3634,-8.7345 0.2086,-13.0691 6.4937,-4.4728 14.1284,-7.661 20.6639,-12.3112 1.1865,-2.6547 -2.1519,-4.4105 -4.2243,-4.8955 -3.0913,0.033 -5.3602,2.6679 -8.1176,3.7403 -2.845,1.6114 -5.6557,3.2859 -8.5592,4.7915 -0.1575,-1.8911 -0.625,-4.5805 1.7849,-5.2235 2.7061,-1.7415 6.4681,-2.7384 8.1079,-5.6291 0.3672,-2.5924 -2.9717,-3.8026 -4.9342,-4.0258 -1.8574,0.2039 -3.5018,1.7448 -5.0377,2.1753 -0.128,-2.3376 0.8934,-5.9849 -1.8329,-7.2155 -0.8083,-0.2387 -1.6656,-0.1153 -2.4931,-0.196 z m -9.0366,46.9106 c 3.3639,1.6277 6.4703,4.7766 10.2781,4.9552 3.3083,-1.1818 6.4319,-3.8783 9.4328,-4.9392 0.139,3.6566 -0.804,7.6666 0.2977,11.189 2.8879,2.7229 6.677,4.1764 9.9854,6.2936 -3.467,2.099 -7.6625,3.6301 -10.4606,6.4685 -0.6619,3.5332 0.051,7.1334 -0.1943,10.6911 -3.331,-1.7366 -6.47,-3.8406 -9.924,-5.3397 -3.434,1.5194 -7.0429,4.2672 -10.1258,5.4558 -0.2068,-3.7725 0.7623,-7.917 -0.3853,-11.4776 -2.9445,-2.5853 -7.0982,-4.0645 -10.0779,-6.0799 3.4329,-1.9694 7.3632,-3.4877 10.2301,-6.2019 1.2279,-3.0735 0.1541,-6.4987 0.5233,-9.7086 0.1632,-0.3516 -0.4379,-2.1194 0.4205,-1.3063 z"
       id="path9694"
       inkscape:connector-curvature="0" />
    <path
       style="fill:url(#radialGradient9714);fill-opacity:1"
       d="m 5188.7141,1869.6029 c -1.588,0 -2.0019,0.2104 -2.0019,1.0279 0,0.2563 -0.073,0.5394 -0.1615,0.6284 -0.1052,0.1051 -0.1145,0.2569 -0.025,0.4357 0.3267,0.656 0.1417,4.1925 -0.2734,5.2185 -0.1225,0.3026 -0.2157,0.3404 -0.6595,0.2683 -0.4702,-0.076 -1.7151,-0.7139 -3.2502,-1.6663 -1.5224,-0.9445 -2.3531,-1.1708 -3.2048,-0.8714 -0.6215,0.2184 -2.308,1.2934 -2.5319,1.6142 -0.3003,0.4302 -0.016,0.7603 1.2516,1.456 0.4309,0.2367 1.3701,0.7752 2.0886,1.1953 1.2714,0.7433 1.5928,0.9268 3.1375,1.7975 0.4073,0.2297 0.8993,0.5399 1.0935,0.6906 0.1944,0.1507 0.4273,0.2751 0.5182,0.2759 0.3152,0 1.4608,1.031 1.7513,1.573 0.2679,0.5 0.2872,0.7885 0.2414,3.4815 -0.047,2.7668 -0.068,2.9522 -0.3667,3.2511 -0.2889,0.2888 -0.3685,0.3019 -0.8892,0.1354 -0.7863,-0.2513 -6.1827,-3.2559 -7.4627,-4.1544 -0.3865,-0.2714 -1.3991,-0.8453 -2.4452,-1.3863 -0.3293,-0.1703 -0.797,-0.4486 -1.038,-0.6191 -0.241,-0.1704 -0.6372,-0.412 -0.8816,-0.5366 -0.4471,-0.228 -1.1503,-0.6164 -2.5184,-1.3904 -0.4073,-0.2305 -0.9742,-0.5777 -1.2592,-0.7714 -0.8122,-0.5519 -1.7518,-0.4139 -3.0492,0.4492 -0.5625,0.3743 -1.177,0.8449 -1.3652,1.0455 l -0.3415,0.3668 0.5173,0.4256 c 0.2851,0.2351 0.9151,0.6382 1.398,0.8933 1.4087,0.7441 2.2507,1.2248 2.8212,1.6125 0.2932,0.1992 0.5908,0.3626 0.6612,0.3626 0.07,0 0.3045,0.1237 0.5207,0.275 0.2162,0.1513 0.6924,0.4435 1.059,0.6502 2.617,1.476 3.299,1.877 3.5236,2.0735 0.1402,0.1227 0.5527,0.354 0.9194,0.5148 0.3665,0.1609 1.3012,0.6797 2.0751,1.1515 0.7738,0.4719 1.705,1.0214 2.0693,1.2205 0.3642,0.1992 0.8374,0.4866 1.0531,0.6402 0.2157,0.1536 0.5522,0.346 0.7461,0.4281 0.1939,0.082 1.0842,0.6015 1.9792,1.1532 1.3564,0.8362 1.6835,1.1105 1.9667,1.6512 l 0.3398,0.6494 -0.07,5.5718 c -0.075,5.9033 -0.1939,8.6165 -0.3987,9.1619 -0.1447,0.3854 -0.6081,0.4351 -1.1692,0.127 -0.2037,-0.1117 -0.6856,-0.3786 -1.0717,-0.5938 -0.386,-0.2153 -0.9861,-0.5484 -1.3332,-0.7402 -0.3471,-0.1919 -1.0654,-0.5993 -1.5948,-0.9068 -0.5296,-0.3075 -1.3892,-0.8003 -1.9111,-1.0935 -0.522,-0.2933 -1.235,-0.7996 -1.5848,-1.1255 l -0.6367,-0.5922 -0.056,-4.8913 c -0.049,-4.3369 -0.085,-4.9348 -0.3129,-5.2833 -0.2243,-0.3423 -0.3267,-0.3821 -0.7999,-0.3053 -0.657,0.1066 -2.2751,0.8223 -2.6059,1.1532 -0.2027,0.2027 -0.2389,0.66 -0.2389,3.0206 0,2.2649 -0.044,2.87 -0.2389,3.2612 -0.2224,0.4459 -0.2778,0.4719 -0.7772,0.3793 -0.2959,-0.055 -0.64,-0.1835 -0.7621,-0.2868 -0.1223,-0.1034 -0.421,-0.2865 -0.6654,-0.4055 -0.4826,-0.2349 -1.8451,-0.9819 -2.8582,-1.5679 -0.5146,-0.2976 -0.7761,-0.3551 -1.3652,-0.2986 -0.6305,0.06 -0.8599,0.1849 -1.6966,0.9194 -0.5321,0.4671 -0.9665,0.9677 -0.9665,1.1129 0,0.2516 1.231,1.3408 1.5157,1.3408 0.075,0 0.4814,0.2176 0.9026,0.4836 0.8524,0.5383 1.2105,0.7478 2.1424,1.2483 0.3506,0.1882 0.883,0.5096 1.1827,0.7133 0.2996,0.2036 0.5937,0.3684 0.6536,0.3684 0.1658,0 2.1158,1.2842 2.3157,1.5251 0.4839,0.5831 0.614,1.6475 0.6157,5.02 0,2.0824 -0.055,3.3954 -0.1464,3.4521 -0.082,0.05 -0.1488,0.5908 -0.1488,1.1995 0,0.8924 -0.046,1.1238 -0.2431,1.1995 -0.2797,0.1073 -2.8914,-1.199 -4.6474,-2.3258 -0.3789,-0.2431 -0.7308,-0.4433 -0.7831,-0.4433 -0.052,0 -0.4806,-0.2464 -0.9506,-0.5476 -0.4699,-0.3013 -1.2549,-0.7597 -1.7437,-1.0187 -1.1543,-0.6116 -3.0924,-1.7629 -3.8743,-2.3022 -0.3392,-0.2339 -0.68,-0.4265 -0.7562,-0.4265 -0.076,0 -0.4106,-0.198 -0.7445,-0.4399 -0.4371,-0.3165 -0.6302,-0.5754 -0.688,-0.9253 -0.1146,-0.6932 -0.2459,-2.4442 -0.2415,-3.2266 0,-0.3666 -1e-4,-0.9317 -0.012,-1.2576 -0.01,-0.3258 -0.011,-0.7095 0,-0.8521 0.016,-0.2529 0.024,-0.5147 0.025,-0.8891 3e-4,-0.1018 0.038,-0.8363 0.087,-1.6335 0.053,-0.8803 0.03,-1.5202 -0.06,-1.6293 -0.1444,-0.1758 -0.1358,-9.5157 0.01,-10.8695 0.037,-0.3401 0.015,-0.704 -0.049,-0.8075 -0.064,-0.1034 -0.05,-0.313 0.031,-0.4651 0.087,-0.1623 0.094,-0.3478 0.018,-0.4509 -0.072,-0.097 -0.1179,-0.4762 -0.1043,-0.8428 0.028,-0.7599 -0.1415,-1.3324 -0.3936,-1.3324 -0.3571,0 -2.6965,1.2531 -3.109,1.6655 -0.3514,0.3514 -0.4298,0.5579 -0.4315,1.1229 -0.037,12.4502 -0.1319,18.4171 -0.2952,18.614 -0.3986,0.4801 -1.0278,0.227 -4.4262,-1.7749 -1.0717,-0.6312 -2.0152,-1.2719 -2.0962,-1.4232 -0.2581,-0.4824 -0.3307,-1.7255 -0.3802,-6.5568 -0.048,-4.7213 -0.093,-5.1319 -0.5762,-5.1319 -0.3376,0 -1.9153,0.7844 -2.4721,1.2289 l -0.5459,0.4357 -0.072,1.6487 c -0.038,0.9065 -0.1145,1.9236 -0.1699,2.2602 -0.064,0.3883 -0.04,0.6506 0.062,0.7141 0.2029,0.1254 0.214,1.2162 0.014,1.34 -0.081,0.05 -0.1489,0.2522 -0.1489,0.4492 0,0.4449 -0.6005,0.8738 -1.0321,0.7368 -0.1685,-0.053 -1.4537,-0.7536 -2.8574,-1.5561 -2.6526,-1.5166 -3.1331,-1.7198 -3.7146,-1.5738 -0.4862,0.122 -1.4308,1.6828 -1.4308,2.3645 0,0.6021 0.1979,0.8352 1.1591,1.3769 0.3812,0.2149 1.0252,0.6044 1.4325,0.8656 0.4073,0.2613 1.0415,0.6119 1.4081,0.7789 0.9333,0.4254 2.2215,1.6033 2.2215,2.0314 0,0.4572 -0.3507,0.7275 -2.0112,1.5503 -0.3322,0.1646 -0.7661,0.4283 -0.9648,0.5846 -0.1986,0.1562 -0.5937,0.3909 -0.8773,0.5223 -0.9694,0.4492 -1.788,1.0526 -2.0037,1.4771 -0.1356,0.2668 -0.2095,0.8168 -0.1985,1.4813 0.025,1.4955 0.1421,1.9352 0.5266,1.9902 0.3526,0.05 1.9242,-0.7262 3.9593,-1.9591 0.9954,-0.6031 1.5524,-0.915 2.1618,-1.2054 0.285,-0.1359 0.6854,-0.3652 0.8891,-0.5097 0.2036,-0.1446 0.8973,-0.5458 1.541,-0.8908 1.8004,-0.965 2.0914,-0.9031 5.5676,1.1608 2.8322,1.6815 3.0284,2.0122 1.7412,2.9567 -0.7711,0.5656 -5.0225,3.0506 -7.0043,4.0939 -1.2526,0.6592 -1.5361,0.8181 -3.3268,1.8589 -0.7739,0.4498 -1.6485,0.9264 -1.9439,1.0607 -0.2955,0.1342 -0.5863,0.324 -0.646,0.4206 -0.059,0.097 -0.3837,0.3041 -0.7209,0.4593 -1.0203,0.4696 -1.6231,0.8496 -2.2063,1.3963 l -0.5561,0.5207 0,1.4426 c 0.01,1.5355 0.1566,1.9607 0.6965,1.9607 0.3719,0 1.989,-0.8434 4.443,-2.3157 1.0395,-0.6237 2.1029,-1.222 2.3611,-1.3307 0.2584,-0.1088 0.7577,-0.3913 1.1104,-0.6284 0.6887,-0.4629 2.5344,-1.4911 3.3806,-1.8825 0.285,-0.1318 0.7229,-0.3939 0.9724,-0.5821 0.2496,-0.1882 0.684,-0.4503 0.9639,-0.5812 0.2799,-0.1308 1.0091,-0.5379 1.6201,-0.9042 0.6109,-0.3664 1.3101,-0.7657 1.5545,-0.8891 0.2443,-0.1235 0.8436,-0.4542 1.3324,-0.7344 1.7397,-0.997 3.1835,-1.705 3.4773,-1.705 0.164,0 1.3808,0.6256 2.7052,1.3888 1.3245,0.7631 2.8418,1.6208 3.3713,1.9069 1.8326,0.9902 6.8161,3.9297 7.34,4.3294 0.4341,0.3312 0.5177,0.4826 0.4803,0.8639 -0.04,0.4024 -0.2069,0.5622 -1.3038,1.2482 -0.6925,0.433 -1.3592,0.8299 -1.4813,0.8807 -0.1223,0.051 -0.6549,0.3756 -1.1844,0.7218 -0.5295,0.3461 -1.2628,0.7887 -1.6293,0.9849 -0.3666,0.1962 -0.7993,0.4352 -0.9623,0.5291 -0.6183,0.3564 -1.6205,0.7731 -1.8572,0.7731 -0.2559,0 -1.4123,-0.5751 -2.0634,-1.0263 -0.206,-0.1427 -0.5749,-0.3607 -0.8193,-0.4853 -0.8848,-0.4511 -1.9248,-1.0389 -2.2913,-1.2929 -0.206,-0.1427 -0.5749,-0.3609 -0.8193,-0.4853 -0.2444,-0.1243 -0.8121,-0.4359 -1.26,-0.6923 -0.4481,-0.2564 -1.1004,-0.5969 -1.4519,-0.7579 -0.5861,-0.2683 -0.6754,-0.2756 -1.0741,-0.07 -0.2392,0.1238 -0.4358,0.3164 -0.4358,0.4265 0,0.1101 -0.1,0.2822 -0.222,0.3836 -0.1697,0.1408 -0.2212,0.5267 -0.2212,1.6259 0,1.5374 0.012,1.5632 0.8891,2.0667 0.2036,0.1169 1.0692,0.6389 1.9245,1.1592 2.7376,1.6652 2.9379,1.923 2.0306,2.6151 -0.5437,0.4147 -3.6622,2.309 -3.8012,2.309 -0.048,0 -0.3308,0.2348 -0.625,0.5207 -0.559,0.543 -0.8013,1.3758 -0.5459,1.8757 0.07,0.1373 0.1279,0.4981 0.1279,0.8025 0,0.6493 0.3432,1.0952 0.8445,1.0952 0.3567,0 1.7374,-0.695 2.3973,-1.2071 0.1943,-0.1508 0.4284,-0.2733 0.5206,-0.2733 0.092,0 0.4121,-0.1674 0.7117,-0.371 0.6758,-0.4593 1.493,-0.9089 3.6657,-2.0247 1.3794,-0.7083 1.7797,-0.8548 2.1408,-0.7755 0.5692,0.1251 1.4438,0.527 2.3813,1.0918 0.4073,0.2454 1.1755,0.6741 1.705,0.9531 2.4601,1.2961 4.7383,2.8731 4.7383,3.2796 0,0.2746 -0.8952,0.9414 -2.5168,1.875 -0.7739,0.4455 -1.8635,1.0883 -2.4217,1.4274 -0.5582,0.3392 -1.0584,0.6205 -1.1111,0.6241 -0.052,0 -0.6286,0.3369 -1.2803,0.7411 -0.6517,0.4042 -1.4199,0.843 -1.705,0.9741 -0.2852,0.131 -0.6873,0.3567 -0.8933,0.503 -0.9856,0.7001 -3.7557,2.0692 -4.1865,2.0692 -0.4317,0 -3.0413,-1.3383 -4.6499,-2.3855 -0.6427,-0.4183 -2.1725,-1.305 -4.3294,-2.5092 -0.2263,-0.1262 -0.7366,-0.4266 -1.1356,-0.6687 -0.8489,-0.515 -1.2387,-0.7381 -2.0978,-1.1995 -0.3469,-0.1863 -0.813,-0.4635 -1.0363,-0.6157 -0.2234,-0.1522 -0.8392,-0.5286 -1.3686,-0.837 -0.5296,-0.3082 -1.1961,-0.7089 -1.4813,-0.8907 -2.0285,-1.2941 -4.599,-2.7137 -4.9393,-2.7288 -0.5666,-0.024 -0.7894,0.5354 -0.8192,2.0541 -0.028,1.4217 -0.027,1.4242 0.4761,2.0113 0.2874,0.3354 1.0676,0.9009 1.8185,1.3172 0.7237,0.4013 1.5156,0.8665 1.7589,1.0355 0.4612,0.3204 0.5901,0.3974 1.7336,1.022 0.3825,0.2089 1.149,0.672 1.7034,1.0279 1.1342,0.7284 2.3604,1.4577 3.6733,2.1853 2.1648,1.1997 4.6332,2.7792 5.1496,3.2957 l 0.561,0.561 -0.3802,0.4997 c -0.2097,0.2749 -0.7346,0.6726 -1.165,0.8832 -0.4304,0.2106 -1.1758,0.6358 -1.6579,0.9446 -1.0258,0.6568 -2.5714,1.3677 -2.9743,1.3677 -0.2992,0 -2.326,-0.9936 -2.9887,-1.4644 -0.2169,-0.1541 -0.6276,-0.3906 -0.9126,-0.5258 -0.2852,-0.1352 -0.8316,-0.4255 -1.213,-0.646 -0.3814,-0.2203 -1.0377,-0.5849 -1.4594,-0.81 -0.4218,-0.2251 -0.9367,-0.5423 -1.1423,-0.7041 -0.2056,-0.1617 -0.4278,-0.2935 -0.4954,-0.2935 -0.068,0 -0.4381,-0.2006 -0.8235,-0.445 -1.3746,-0.8718 -1.6798,-0.6134 -1.6798,1.4157 l 0,1.5023 0.4954,0.503 c 0.273,0.2773 0.8889,0.7323 1.3694,1.0102 2.7013,1.5621 4.0595,2.5502 4.0595,2.9567 0,0.3256 -0.6549,0.9515 -1.3324,1.2727 -0.7838,0.3716 -1.7635,0.9182 -2.3931,1.3349 -0.3104,0.2053 -0.6206,0.3718 -0.6906,0.3718 -0.07,0 -0.5043,0.271 -0.9657,0.6014 -1.0335,0.7402 -1.0544,0.96 -0.2086,2.2257 0.7492,1.1209 1.1718,1.3348 1.9322,0.9741 0.2849,-0.1352 0.5697,-0.2448 0.6325,-0.2448 0.063,0 0.2188,-0.095 0.3474,-0.2103 0.1286,-0.1154 0.6683,-0.4366 1.1978,-0.7133 0.5295,-0.2769 1.0963,-0.5785 1.2592,-0.6696 0.7498,-0.4185 2.2672,-1.0741 2.4873,-1.0741 0.57,0 0.6936,0.5683 0.7697,3.5522 0.081,3.1572 0.2426,3.8593 0.953,4.1444 0.2096,0.084 0.7132,0.3487 1.1205,0.5879 1.6761,0.9847 1.6857,0.9581 1.6814,-5.3682 l 0,-5.1572 0.3987,-0.5787 c 0.2203,-0.3177 0.5436,-0.621 0.7175,-0.6729 0.174,-0.052 0.6423,-0.2998 1.0414,-0.5518 1.6549,-1.0448 4.044,-2.2239 4.3025,-2.1248 0.1173,0.045 0.333,0.2648 0.4803,0.4896 0.2497,0.3809 0.2727,1.0195 0.3129,9.4495 l 0.042,9.0408 0.3432,0.519 c 0.3475,0.5273 2.0896,1.6784 2.8162,1.8606 0.9035,0.2268 0.8598,0.8597 0.8041,-11.9991 l -0.05,-11.7072 0.3457,-0.556 c 0.1899,-0.3055 0.3966,-0.5552 0.4601,-0.5552 0.063,0 0.3763,-0.176 0.6931,-0.3911 0.5653,-0.3837 1.2473,-0.7634 3.7541,-2.0869 0.6894,-0.364 1.5226,-0.8428 1.8514,-1.0649 0.3287,-0.2222 1.2297,-0.7602 2.0036,-1.1953 0.7738,-0.435 1.5764,-0.9069 1.7824,-1.0489 0.3478,-0.2397 1.2535,-0.7524 2.277,-1.2887 0.2365,-0.1239 0.6633,-0.2324 0.9489,-0.2406 0.45,-0.013 0.5348,0.042 0.635,0.4063 0.063,0.2317 0.085,2.5953 0.046,5.2514 l -0.072,4.8291 -0.3583,0.4685 c -0.1971,0.2585 -0.611,0.6025 -0.9203,0.7637 -0.3092,0.1612 -0.7949,0.4134 -1.08,0.5611 -0.2851,0.1476 -0.7976,0.4579 -1.1381,0.6889 -0.3405,0.2311 -0.6735,0.4217 -0.7402,0.424 -0.067,0 -0.5215,0.2727 -1.0102,0.5997 -0.4888,0.3271 -1.2878,0.7957 -1.7766,1.0414 -0.8247,0.4145 -1.6574,0.9364 -2.1197,1.329 -0.344,0.2921 0.2859,1.0558 1.7017,2.065 0.9193,0.6552 1.3077,0.5915 3.2258,-0.5223 0.9118,-0.5295 1.721,-0.9623 1.7976,-0.9623 0.077,0 0.3833,-0.1664 0.683,-0.3701 0.6335,-0.4305 1.094,-0.4698 1.4745,-0.1254 0.2445,0.2212 0.2726,0.5231 0.2726,3.0913 0,2.6322 0.022,2.8742 0.2986,3.2267 0.4324,0.5496 1.7703,1.1581 2.6076,1.1877 1.0933,0.038 1.0867,0.065 1.0893,-5.396 l 0,-4.6802 0.4071,-0.556 c 0.4063,-0.5541 2.5795,-2.0131 3.8878,-2.611 0.3666,-0.1674 0.767,-0.394 0.8891,-0.503 0.1222,-0.1089 0.5226,-0.3578 0.8891,-0.5535 0.3666,-0.1956 0.7994,-0.4303 0.9623,-0.5207 0.7906,-0.4384 1.5889,-0.7797 1.822,-0.7797 0.1423,0 0.4055,0.1026 0.5846,0.2279 l 0.3255,0.228 -0.057,7.2895 c -0.031,4.0087 -0.064,7.4218 -0.073,7.5847 -0.048,0.8271 -0.8034,1.6834 -1.9439,2.2038 -0.7727,0.3525 -2.0172,1.0677 -2.4553,1.4123 -0.2151,0.1691 -0.4726,0.3079 -0.5729,0.3079 -0.1002,0 -0.3495,0.1318 -0.5551,0.2935 -0.2056,0.1618 -0.6976,0.467 -1.0935,0.6789 -1.1684,0.6248 -2.1395,1.1651 -3.1645,1.7605 -0.5294,0.3075 -1.5965,0.8937 -2.3703,1.3021 -0.774,0.4086 -1.5055,0.8272 -1.6277,0.9312 -0.1223,0.1039 -0.8103,0.4901 -1.5275,0.858 -0.7173,0.3677 -1.3839,0.7344 -1.4813,0.8125 -0.1696,0.136 -1.4623,0.8528 -2.399,1.3307 -0.6951,0.3546 -1.5544,1.0705 -1.5544,1.2954 0,0.3345 0.582,0.7776 1.8555,1.4115 l 1.2012,0.598 0.7369,-0.2893 c 0.4049,-0.1596 1.0873,-0.4984 1.5174,-0.752 0.4302,-0.2536 0.9954,-0.558 1.2542,-0.6772 0.2588,-0.1191 0.9031,-0.4936 1.4325,-0.831 0.5294,-0.3373 1.5223,-0.9016 2.2047,-1.255 0.6824,-0.3535 1.3483,-0.7393 1.4804,-0.8563 0.1322,-0.117 0.8731,-0.5423 1.647,-0.9455 0.7738,-0.4031 1.8067,-0.9552 2.2955,-1.2281 2.8942,-1.6162 3.5212,-1.9214 4.173,-2.0272 0.4305,-0.07 0.5051,-0.029 0.6519,0.3474 0.4982,1.2807 0.3549,7.012 -0.1893,7.5562 -0.2255,0.2255 -0.7451,0.5274 -1.9691,1.1473 -0.4073,0.2062 -1.208,0.6415 -1.7782,0.9682 -0.5703,0.3266 -1.2685,0.7043 -1.5537,0.8369 -0.2851,0.1327 -0.7179,0.3882 -0.9622,0.5703 -0.2445,0.1821 -0.8845,0.5755 -1.4216,0.874 -0.5371,0.2986 -1.0982,0.6781 -1.2458,0.8411 -0.2569,0.2839 -0.2567,0.3083 -0.01,0.5863 0.1444,0.1597 0.6905,0.5686 1.2146,0.9102 1.2597,0.8206 2.1057,0.9252 2.9853,0.3701 0.337,-0.2128 0.6655,-0.3861 0.7293,-0.3861 0.064,0 0.4475,-0.2222 0.8538,-0.4938 0.4062,-0.2715 0.9684,-0.5727 1.2482,-0.6687 0.2798,-0.096 0.6128,-0.2646 0.7402,-0.3743 0.4733,-0.4072 0.9427,-0.4028 1.377,0.013 l 0.4105,0.3937 0,3.2822 c 0,4.0461 -0.093,3.8875 2.2467,3.9089 0.9827,0.01 1.3404,-0.044 1.5183,-0.2221 l 0.01,0 c 0.1997,-0.1998 0.3125,-0.9682 0.2683,-1.8262 -0.01,-0.1145 0.043,-0.5473 0.1094,-0.9622 0.066,-0.4158 0.064,-0.8249 -0.01,-0.9119 -0.071,-0.087 -0.1098,-0.821 -0.087,-1.6301 0.046,-1.6429 0.2765,-2.3314 0.8041,-2.4066 0.2114,-0.031 1.2195,0.4551 2.7405,1.3215 3.0579,1.7418 3.3732,1.7939 4.9637,0.8327 0.5938,-0.3589 1.1753,-0.7863 1.2903,-0.9505 0.1899,-0.2711 0.1643,-0.3382 -0.2666,-0.7444 -0.4295,-0.4048 -2.4674,-1.6722 -2.6901,-1.6722 -0.05,0 -0.5878,-0.3341 -1.1936,-0.7428 -0.6056,-0.4086 -1.2535,-0.8039 -1.4383,-0.879 -0.1849,-0.075 -0.6345,-0.3389 -1.001,-0.5879 -0.3666,-0.2492 -0.716,-0.4548 -0.7756,-0.4551 -0.3203,0 -1.7984,-1.1261 -2.1214,-1.6142 -0.373,-0.5636 -0.3764,-0.5876 -0.3549,-3.5875 0.021,-2.8319 0.041,-3.0386 0.3297,-3.3512 0.1688,-0.1833 0.4523,-0.3339 0.6309,-0.3339 0.3337,0 2.5076,1.051 3.2704,1.5813 0.2351,0.1636 0.6279,0.4003 0.8723,0.5249 0.9001,0.4589 1.9262,1.0387 2.2904,1.2937 0.4461,0.3123 3.8211,2.2274 3.9249,2.2274 0.04,0 0.4229,0.2245 0.8521,0.498 0.4292,0.2733 1.2484,0.7467 1.8186,1.0523 0.5702,0.3055 1.1029,0.6098 1.1843,0.6754 0.5769,0.4644 2.2658,1.1818 2.7809,1.1818 0.8519,0 3.2166,-1.3655 3.2166,-1.8572 0,-0.2385 -1.0579,-1.0562 -2.0726,-1.6008 -0.6304,-0.3383 -2.018,-1.1152 -3.3327,-1.8665 -0.3259,-0.1861 -0.7587,-0.4534 -0.9623,-0.5939 -0.2037,-0.1404 -0.5698,-0.3573 -0.8142,-0.4819 -0.2444,-0.1246 -0.7439,-0.3944 -1.1104,-0.5998 -0.3666,-0.2054 -0.9989,-0.5542 -1.4039,-0.7738 -0.405,-0.2197 -0.9051,-0.5169 -1.1111,-0.6595 -0.206,-0.1428 -0.5732,-0.3607 -0.8176,-0.4854 -0.9448,-0.4817 -1.8901,-1.0204 -2.4125,-1.3753 -0.2995,-0.2037 -0.6013,-0.3701 -0.6695,-0.3701 -0.068,0 -0.4014,-0.1895 -0.7419,-0.4205 -0.3405,-0.2311 -0.8206,-0.5212 -1.0649,-0.6444 -0.8454,-0.4262 -3.7039,-2.2152 -4.0359,-2.526 -0.1833,-0.1715 -0.3323,-0.4613 -0.3323,-0.646 0,-0.1846 -0.072,-0.3801 -0.1598,-0.434 -0.1101,-0.068 -0.1498,-2.3094 -0.1295,-7.3038 0.028,-6.86 0.042,-7.2281 0.3188,-7.6865 0.1593,-0.2647 0.4064,-0.482 0.5476,-0.482 0.2755,0 3.1475,1.4208 3.8255,1.8918 0.2253,0.1565 0.6103,0.3841 0.8547,0.5072 0.7859,0.3963 2.2626,1.2667 2.9179,1.7202 1.1627,0.8047 1.3054,1.0458 1.4443,2.4166 0.069,0.6824 0.082,1.3177 0.029,1.4132 -0.098,0.1744 0.05,5.8604 0.1876,7.2188 0.041,0.3995 0.1419,0.7955 0.2254,0.879 0.2612,0.2612 1.8861,-0.1366 2.7035,-0.6612 1.2232,-0.7848 1.1574,-0.5767 1.1574,-3.6489 0,-2.6268 0.015,-2.7722 0.3222,-3.0988 0.5222,-0.5559 0.7355,-0.4887 3.3806,1.0775 1.1737,0.6949 2.5789,1.2619 2.918,1.1768 0.5785,-0.1452 1.3982,-0.721 2.0802,-1.4619 1.22,-1.3257 1.0678,-1.4812 -4.3328,-4.4565 -0.163,-0.09 -0.7846,-0.4624 -1.3812,-0.8277 -0.5966,-0.3653 -1.2958,-0.7871 -1.5545,-0.9371 -0.2587,-0.1497 -0.6875,-0.4795 -0.9522,-0.7326 l -0.4803,-0.461 0,-4.5691 c 0,-3.8064 0.037,-4.6426 0.2255,-5.0066 0.2798,-0.5412 0.4092,-0.5423 1.4139,-0.013 2.3545,1.24 5.8906,3.245 6.2271,3.5303 0.132,0.1119 0.6689,0.4244 1.1936,0.6931 0.5249,0.2687 1.2157,0.6662 1.5352,0.8833 0.3194,0.217 0.634,0.3928 0.6998,0.3928 0.066,0 0.4657,0.2339 0.8891,0.519 0.4234,0.2851 0.8276,0.519 0.8984,0.519 0.2406,0 1.0351,0.7602 1.2869,1.2323 0.1535,0.2876 0.2266,0.672 0.1868,0.9892 -0.2091,1.6614 -0.2543,4.0993 -0.1641,9.108 0.1635,9.0816 0.2812,13.7627 0.3474,13.9607 0.103,0.3076 0.69,0.1914 1.5654,-0.307 1.3838,-0.7878 1.761,-1.0539 1.8405,-1.2996 0.041,-0.1293 0.086,-3.8622 0.098,-8.2947 0.013,-4.4323 0.072,-8.124 0.1312,-8.2054 0.059,-0.081 0.05,-0.5143 -0.024,-0.9623 -0.1032,-0.6336 -0.08,-0.9909 0.1118,-1.6066 0.1355,-0.4355 0.3292,-0.8235 0.4299,-0.8622 0.2095,-0.08 1.0556,0.3273 2.2139,1.0682 0.4392,0.281 0.8335,0.5115 0.8773,0.5115 0.044,0 0.531,0.2849 1.0818,0.6325 0.5507,0.3477 1.2483,0.7595 1.5511,0.9177 0.3028,0.1582 0.6832,0.4686 0.8462,0.6889 0.2819,0.3813 0.298,0.6464 0.3129,5.4709 0.013,4.3005 0.051,5.1231 0.2447,5.4188 0.3136,0.4785 0.7287,0.4386 1.7379,-0.1691 0.4734,-0.2851 0.9151,-0.519 0.9808,-0.519 0.296,0 0.7537,-0.8217 0.6754,-1.213 -0.044,-0.2221 -0.017,-0.4451 0.061,-0.4937 0.084,-0.051 0.1447,-1.1859 0.1447,-2.7228 0,-2.4474 0.02,-2.6535 0.2952,-2.9029 0.264,-0.2388 0.3664,-0.2466 0.9262,-0.081 0.346,0.1026 0.6949,0.2364 0.7763,0.2986 0.081,0.062 0.4494,0.2774 0.816,0.4786 0.3665,0.2011 1.0462,0.5776 1.5098,0.8353 2.3324,1.2956 3.1166,1.6445 3.379,1.504 0.3768,-0.2016 1.048,-1.0315 1.2785,-1.5814 0.1087,-0.2592 0.2648,-0.5124 0.3474,-0.5636 0.083,-0.051 0.1506,-0.3101 0.1506,-0.5762 0,-0.5933 -0.3114,-0.8961 -1.7033,-1.6512 -0.5703,-0.3093 -1.1371,-0.642 -1.2593,-0.7402 -0.1222,-0.099 -0.689,-0.4249 -1.2592,-0.7251 -1.5498,-0.8158 -1.7638,-1.0079 -1.647,-1.4737 0.1026,-0.4086 1.0996,-1.2298 2.0171,-1.6621 0.2851,-0.1344 0.652,-0.3658 0.816,-0.5148 0.1641,-0.1489 0.5319,-0.3712 0.8159,-0.4921 0.6564,-0.279 1.4371,-0.997 1.6276,-1.4981 0.2465,-0.6485 0.1858,-2.8269 -0.087,-3.0988 -0.1281,-0.128 -0.2904,-0.2322 -0.3609,-0.2322 -0.1841,0 -3.1392,1.4868 -3.4041,1.7126 -0.1223,0.1042 -0.5771,0.3777 -1.0103,0.6082 -1.0774,0.5732 -1.8773,1.0307 -3.3015,1.8892 -1.702,1.0259 -2.3604,1.0685 -3.7162,0.2431 -0.5454,-0.3319 -1.03,-0.6031 -1.0784,-0.6031 -0.048,0 -0.4346,-0.2322 -0.858,-0.5173 -0.4234,-0.2851 -0.8227,-0.5182 -0.8866,-0.5182 -0.1552,0 -1.2839,-0.7244 -1.7016,-1.0918 -0.1833,-0.1612 -0.3331,-0.4424 -0.3331,-0.625 0,-0.4947 1.2485,-1.42 3.1106,-2.3047 0.3665,-0.1742 0.9333,-0.4932 1.2592,-0.7091 0.3258,-0.216 0.7586,-0.4764 0.9623,-0.5787 0.2036,-0.1025 0.7038,-0.3716 1.1111,-0.5981 0.4073,-0.2266 1.039,-0.5774 1.4056,-0.7806 2.827,-1.5674 3.8376,-2.1525 4.2352,-2.4494 0.252,-0.1883 0.5127,-0.3416 0.5779,-0.3416 0.065,0 0.4697,-0.2338 0.8992,-0.519 0.4295,-0.285 0.8282,-0.5181 0.8866,-0.5181 0.2343,0 2.1403,-1.3521 2.2837,-1.6201 0.2186,-0.4083 0.1983,-3.1634 -0.025,-3.3865 -0.2969,-0.2969 -0.8454,-0.2018 -1.525,0.2658 -0.3552,0.2444 -0.6958,0.4458 -0.7562,0.4458 -0.06,0 -0.8489,0.4247 -1.7513,0.9447 -3.3584,1.935 -5.2364,2.9822 -6.7495,3.7608 -0.8553,0.4402 -1.6884,0.9151 -1.8513,1.0565 -0.163,0.1414 -0.9312,0.5741 -1.7051,0.9606 -1.6486,0.8232 -2.0868,1.0606 -2.8868,1.5662 -0.3259,0.206 -0.8602,0.5126 -1.1861,0.6805 -0.3258,0.168 -1.1028,0.5849 -1.7277,0.9261 -0.6248,0.3412 -1.2888,0.6208 -1.4754,0.6208 -0.3074,0 -2.9207,-1.4142 -4.7946,-2.5941 -0.7207,-0.4538 -1.1034,-0.673 -2.9617,-1.6992 -0.4888,-0.2698 -1.0482,-0.6146 -1.2424,-0.7654 -0.1943,-0.1509 -0.4171,-0.2742 -0.4954,-0.2742 -0.078,0 -0.319,-0.1279 -0.5375,-0.2835 -0.3835,-0.2731 -1.0921,-0.677 -2.5765,-1.4695 -0.3878,-0.207 -0.9204,-0.557 -1.1843,-0.7789 l -0.4803,-0.4029 0.4432,-0.4728 c 0.3902,-0.4138 2.7407,-1.9245 2.9937,-1.9245 0.052,0 0.1986,-0.09 0.3272,-0.2002 0.1286,-0.1108 0.6342,-0.4228 1.123,-0.6923 0.4888,-0.2694 1.222,-0.6775 1.6293,-0.9051 0.4073,-0.2276 0.974,-0.5193 1.2592,-0.6494 0.2851,-0.1299 0.7091,-0.3242 0.943,-0.4323 0.2926,-0.1354 0.5726,-0.1565 0.8949,-0.067 0.4675,0.1291 2.3487,1.0426 3.0492,1.4796 2.4013,1.4978 5.8839,3.394 6.233,3.394 0.4835,0 0.7285,-0.4828 0.7285,-1.4333 0,-0.518 0.082,-1.0725 0.1817,-1.2323 0.1432,-0.2293 0.1432,-0.3296 0,-0.4727 -0.1,-0.1 -0.1817,-0.2944 -0.1817,-0.4332 0,-0.2155 -1.4997,-1.3001 -2.7304,-1.975 -3.0785,-1.6881 -3.2327,-2.0577 -1.3425,-3.2343 1.3317,-0.8288 2.3758,-1.4359 3.2704,-1.901 0.8042,-0.4181 1.1545,-1.0627 0.953,-1.7589 -0.082,-0.2845 -0.1505,-0.7087 -0.1505,-0.9412 0,-0.5686 -0.4096,-1.3986 -0.7419,-1.504 -0.1627,-0.051 -0.7282,0.1578 -1.4292,0.5316 -0.6383,0.3404 -1.4261,0.7529 -1.7513,0.916 -0.3252,0.1631 -0.8388,0.4527 -1.1397,0.6427 -1.8868,1.191 -4.8283,2.7236 -5.2228,2.7211 -0.3699,0 -2.6214,-1.1468 -4.4489,-2.2627 -1.0607,-0.6475 -1.8948,-1.125 -2.6454,-1.5116 -0.9819,-0.5057 -2.1719,-1.4831 -2.1719,-1.7841 0,-0.2406 1.5321,-1.3577 2.7119,-1.9784 0.4621,-0.2431 1.065,-0.6133 1.3383,-0.8218 0.2733,-0.2085 0.5465,-0.3777 0.609,-0.3777 0.062,0 1.2578,-0.6462 2.6539,-1.4367 1.3959,-0.7905 2.9364,-1.6448 3.4252,-1.8993 0.4887,-0.2544 1.3352,-0.7077 1.8816,-1.0069 0.5464,-0.2991 1.1826,-0.5442 1.4123,-0.5442 0.2298,0 0.9328,0.2628 1.5621,0.5846 1.3782,0.7049 4.8305,2.6514 5.1411,2.8986 0.1222,0.098 0.8587,0.5102 1.6352,0.9161 0.7766,0.406 1.6771,0.9001 2.0003,1.0994 0.3232,0.1991 0.7868,0.476 1.0313,0.6165 0.2443,0.1406 1.0973,0.638 1.8959,1.1053 0.7988,0.4675 1.567,0.9178 1.7084,0.9993 0.1414,0.081 0.5894,0.3528 0.9934,0.6031 2.9397,1.8209 5.0483,2.9039 5.5407,2.8465 l 0.376,-0.042 0.042,-1.8867 c 0.04,-1.8115 0.029,-1.8966 -0.3003,-2.1828 -0.6041,-0.5253 -3.3701,-2.1907 -7.8413,-4.7206 -0.2695,-0.1525 -1.069,-0.6207 -1.7765,-1.0396 -0.7074,-0.4191 -1.325,-0.7621 -1.3728,-0.7621 -0.047,0 -0.3347,-0.1553 -0.6384,-0.3466 -0.3037,-0.1912 -1.0538,-0.6375 -1.6647,-0.99 -2.6222,-1.5129 -3.2569,-1.9613 -3.2569,-2.304 0,-0.5219 1.28,-1.4062 4.8383,-3.3368 1.2183,-0.6611 1.5305,-0.6957 2.3477,-0.2641 1.881,0.9933 3.1415,1.6896 3.7507,2.0692 0.3797,0.2366 0.8553,0.5104 1.059,0.6098 0.2036,0.099 0.6381,0.356 0.964,0.5687 1.1717,0.7648 3.0743,1.64 3.4639,1.5948 l 0.3852,-0.045 0.045,-1.6848 c 0.036,-1.4359 1e-4,-1.728 -0.2179,-1.9717 -0.274,-0.3029 -3.0559,-2.1661 -3.4462,-2.3081 -0.4451,-0.162 -1.953,-1.2444 -2.0364,-1.462 -0.093,-0.2408 0.7802,-1.2356 1.0834,-1.2356 0.1,0 0.3816,-0.168 0.625,-0.3727 0.2433,-0.2047 0.6763,-0.4701 0.9623,-0.5896 0.2859,-0.1195 0.8174,-0.4194 1.1818,-0.6654 0.3646,-0.246 0.7012,-0.4475 0.7469,-0.4475 0.1269,0 1.1563,-0.714 1.6142,-1.1204 0.4559,-0.4045 0.5108,-0.7564 0.1884,-1.1827 -0.1196,-0.1581 -0.2186,-0.4274 -0.2212,-0.5972 0,-0.1697 -0.2684,-0.5925 -0.5888,-0.9395 -0.5261,-0.5699 -0.628,-0.6203 -1.0716,-0.53 -0.2702,0.055 -0.8576,0.3198 -1.3055,0.5897 -0.4481,0.2698 -1.0499,0.5971 -1.3349,0.7276 -0.2852,0.1304 -1.0105,0.5406 -1.6125,0.9101 -1.3377,0.8213 -2.4569,1.316 -2.7363,1.2088 -0.1149,-0.044 -0.3164,-0.2966 -0.4475,-0.5594 -0.1961,-0.3931 -0.2389,-1.0211 -0.2389,-3.5388 0,-3.527 0.1485,-3.1501 -1.7303,-4.3563 -1.239,-0.7955 -1.6113,-0.8516 -1.8572,-0.2759 -0.2476,0.5794 -0.2506,0.6144 -0.3449,6.2582 l -0.085,5.1109 -0.5459,0.4719 c -0.3005,0.2602 -1.1793,0.8225 -1.9531,1.2482 -0.774,0.4257 -1.5187,0.8668 -1.6546,0.9817 -0.3248,0.2743 -2.0192,1.0741 -2.2762,1.0741 -0.1102,0 -0.303,-0.1486 -0.4298,-0.3297 -0.2029,-0.2896 -0.2313,-1.4738 -0.2313,-9.8592 0,-6.2186 -0.051,-9.6272 -0.1506,-9.8121 -0.2567,-0.4797 -2.61,-1.9187 -3.1375,-1.9187 -0.093,0 -0.291,0.1099 -0.4399,0.2448 -0.2579,0.2332 -0.27,0.7764 -0.27,11.2799 0,11.6032 -0.049,12.6224 -0.6494,13.382 -0.3319,0.42 -1.631,1.339 -2.3822,1.6857 -0.2474,0.1141 -0.882,0.4749 -1.4114,0.8016 -0.5296,0.3267 -1.1963,0.7027 -1.4813,0.8352 -0.2852,0.1325 -0.6855,0.3577 -0.8891,0.5014 -0.2037,0.1436 -0.9028,0.5429 -1.5545,0.8874 -0.6517,0.3444 -1.2851,0.7092 -1.4072,0.81 -0.5505,0.454 -3.747,2.0221 -4.0368,1.9801 -0.4487,-0.065 -0.5502,-0.6946 -0.6165,-3.8138 -0.031,-1.4311 -0.062,-2.7015 -0.068,-2.8238 -0.01,-0.1221 0.011,-0.3885 0.037,-0.5921 0.026,-0.2037 0.056,-0.933 0.069,-1.6201 l 0.024,-1.2491 0.7057,-0.6772 c 0.3874,-0.3719 1.1374,-0.8981 1.6663,-1.1708 0.529,-0.2729 1.261,-0.6773 1.6277,-0.8984 0.3665,-0.2211 1.0332,-0.5935 1.4813,-0.8277 0.7591,-0.3968 1.7824,-1.0147 2.9213,-1.7605 0.2634,-0.1725 0.5154,-0.4015 0.5577,-0.5106 0.1099,-0.2839 -0.9271,-1.5494 -1.6436,-2.0062 -0.9831,-0.6267 -0.9371,-0.6411 -5.1622,1.5873 -1.9794,1.0439 -2.0728,0.9175 -2.1038,-2.7986 -0.027,-3.1914 -0.1023,-3.4673 -1.0245,-3.7717 -0.2777,-0.092 -0.8085,-0.3291 -1.1801,-0.5266 -1.0199,-0.5423 -1.4052,-0.4872 -1.8842,0.2658 -0.2287,0.3596 -0.2566,0.9098 -0.2566,5.2034 0,4.0866 -0.033,4.826 -0.2212,4.9831 -0.1222,0.1013 -0.2221,0.276 -0.2221,0.386 0,0.1102 -0.2172,0.3112 -0.4819,0.4475 -0.2648,0.1364 -0.6818,0.395 -0.9262,0.5746 -0.2443,0.1795 -0.5655,0.37 -0.7133,0.4222 -0.1477,0.052 -0.741,0.3782 -1.3206,0.7251 -2.9423,1.7604 -4.6189,2.6286 -5.0705,2.6286 -0.8134,0 -0.8193,-0.045 -0.8193,-7.6116 0,-4.0829 0.06,-7.1428 0.1447,-7.4098 0.079,-0.2502 0.1816,-0.7063 0.2288,-1.0136 0.073,-0.4739 0.2031,-0.6338 0.8563,-1.0514 0.9872,-0.6312 3.4951,-2.1005 4.5439,-2.6614 0.4465,-0.2388 1.0725,-0.5981 1.3922,-0.8 0.6731,-0.4248 1.6887,-0.9886 2.536,-1.4081 0.3259,-0.1613 0.6921,-0.379 0.8143,-0.4837 0.1221,-0.1046 0.689,-0.4393 1.2592,-0.7444 0.5703,-0.305 1.3754,-0.7703 1.7891,-1.0338 0.4139,-0.2634 0.9114,-0.53 1.107,-0.5921 0.1956,-0.062 0.5241,-0.2278 0.7293,-0.3668 0.9684,-0.6559 1.786,-1.1465 2.669,-1.6024 2.0119,-1.0386 3.2569,-1.8444 3.2569,-2.1079 0,-0.2186 -1.3042,-1.3265 -1.562,-1.3265 -0.044,0 -0.327,-0.1664 -0.6266,-0.3701 -0.7406,-0.5032 -1.4433,-0.4863 -2.1871,0.054 -0.3214,0.2335 -0.8329,0.5048 -1.1372,0.6031 -0.3043,0.099 -0.5952,0.2457 -0.646,0.3281 -0.05,0.082 -0.3694,0.2835 -0.7066,0.4458 -0.8434,0.4056 -1.8166,0.9396 -2.4511,1.3458 -0.7658,0.4903 -1.3279,0.8017 -2.0861,1.1549 -0.3666,0.1708 -0.767,0.3994 -0.8891,0.5072 -0.1223,0.1079 -0.8555,0.5216 -1.6293,0.9203 -0.7739,0.3987 -1.8734,1.0318 -2.4436,1.4055 -0.5702,0.3737 -1.2807,0.7573 -1.5797,0.853 -0.2989,0.096 -0.628,0.2733 -0.7293,0.3953 -0.2569,0.3096 -1.3758,0.8 -1.8261,0.8 -0.2688,0 -0.4418,-0.1285 -0.6115,-0.4568 -0.1995,-0.3856 -0.2286,-0.9437 -0.1885,-3.5471 l 0.048,-3.0871 0.4433,-0.4702 c 0.2444,-0.2596 0.6771,-0.5709 0.9623,-0.6906 0.2852,-0.1198 0.6854,-0.3708 0.8891,-0.5577 0.2036,-0.1869 0.5373,-0.3896 0.741,-0.4508 0.2036,-0.061 1.0045,-0.486 1.7799,-0.943 2.0745,-1.2227 2.2374,-1.3147 2.8852,-1.6301 0.9322,-0.4539 2.217,-1.4166 2.272,-1.7025 0.059,-0.3062 -0.3349,-0.7839 -0.7562,-0.9177 -0.163,-0.051 -0.6821,-0.3202 -1.1533,-0.5964 -0.4712,-0.2762 -0.9863,-0.5014 -1.1456,-0.5014 -0.1594,0 -0.9485,0.3403 -1.753,0.7562 -0.8044,0.4162 -1.6634,0.8527 -1.9077,0.9699 -0.2444,0.1171 -0.6098,0.3095 -0.8134,0.4265 -2.2303,1.2816 -2.5185,0.8454 -2.5185,-3.8071 0,-3.5735 0.071,-3.4511 -1.996,-3.4538 l 0,0 z m -11.4574,42.4305 9e-4,0 c 0.3835,0 2.9717,1.3829 5.9066,3.1586 0.9368,0.5667 2.2028,1.2954 2.8137,1.6184 0.611,0.323 1.3899,0.7468 1.7302,0.9412 0.6312,0.3606 1.357,0.4592 1.61,0.2196 0.077,-0.073 0.6732,-0.4136 1.3248,-0.7579 0.6517,-0.3444 1.4647,-0.8192 1.8051,-1.0532 0.3406,-0.2339 0.6745,-0.4239 0.7445,-0.4239 0.07,0 0.7709,-0.3927 1.5561,-0.8714 0.7852,-0.4787 1.644,-0.9455 1.9094,-1.038 0.2655,-0.093 0.5875,-0.2588 0.715,-0.3701 0.4082,-0.3562 2.227,-1.2744 2.5243,-1.2744 0.5779,0 0.627,0.4199 0.5291,4.7164 -0.1777,7.8123 -0.1791,7.7759 0.085,8.1794 0.1946,0.297 4.2148,2.8019 4.4968,2.8019 0.043,0 0.3532,0.2014 0.6906,0.4458 0.3374,0.2444 0.6736,0.4433 0.7461,0.4433 0.072,0 0.4775,0.2339 0.9009,0.519 0.4234,0.2851 0.8184,0.5181 0.879,0.5181 0.06,0 0.4762,0.234 0.9219,0.519 0.4457,0.2852 0.8486,0.5165 0.895,0.5165 0.1295,0 1.2952,0.7624 1.6697,1.0918 0.1832,0.1612 0.3339,0.3858 0.3339,0.498 0,0.1123 -0.4511,0.4117 -1.0009,0.6654 -0.5499,0.2535 -1.1669,0.577 -1.3728,0.7191 -0.206,0.1422 -0.6737,0.4193 -1.038,0.6166 -1.689,0.9148 -2.4293,1.3342 -3.3167,1.8733 -0.5265,0.3198 -1.1881,0.6586 -1.4712,0.752 -0.2831,0.094 -0.5935,0.2627 -0.6889,0.3776 -0.096,0.115 -0.6832,0.4838 -1.3071,0.8193 -0.6239,0.3354 -1.2909,0.7553 -1.4813,0.932 l -0.3457,0.3197 0.083,5.036 c 0.046,2.7696 0.041,5.5529 -0.012,6.1842 -0.088,1.0946 -0.1088,1.1473 -0.4551,1.1473 -0.1997,0 -0.5401,-0.1213 -0.7562,-0.27 -0.2162,-0.1487 -0.6251,-0.3592 -0.9101,-0.4685 -0.2852,-0.1094 -0.5856,-0.2496 -0.6671,-0.3104 -0.2168,-0.1619 -1.8393,-1.0909 -3.9955,-2.2888 -0.3666,-0.2036 -0.9841,-0.5476 -1.3719,-0.7638 -1.5977,-0.8902 -3.362,-1.8228 -3.4496,-1.8228 -0.1014,0 -3.6773,2.0232 -3.9206,2.2182 -0.082,0.065 -0.6807,0.4013 -1.3324,0.7461 -0.6517,0.3449 -1.3834,0.768 -1.6243,0.9412 -0.241,0.1734 -0.7063,0.4535 -1.0355,0.6208 -0.3293,0.1674 -1.1785,0.6168 -1.8875,0.9993 -1.3444,0.7253 -1.6561,0.8123 -1.8379,0.5182 l 0,0 c -0.2319,-0.3754 -0.253,-1.8316 -0.122,-8.4293 l 0.085,-4.2369 -0.4357,-0.4281 c -0.2387,-0.2355 -0.6923,-0.5598 -1.0085,-0.7192 -0.3163,-0.1595 -0.7609,-0.4153 -0.9875,-0.5686 -0.2266,-0.1534 -0.8259,-0.4962 -1.3324,-0.7621 -0.5066,-0.2659 -1.3206,-0.7042 -1.8094,-0.9741 -0.4887,-0.2699 -1.1554,-0.6365 -1.4813,-0.8151 -0.3258,-0.1786 -1.1841,-0.6673 -1.9085,-1.0859 -0.7245,-0.4188 -1.3587,-0.7652 -1.4081,-0.7697 -0.2467,-0.022 -1.7217,-1.1395 -1.7589,-1.3324 -0.029,-0.1466 0.2449,-0.347 0.8041,-0.5888 1.0262,-0.4434 1.4636,-0.6675 2.7153,-1.3955 0.9776,-0.5685 1.9387,-1.1031 3.4075,-1.8926 0.448,-0.2408 1.0806,-0.5951 1.4065,-0.7881 0.3258,-0.193 0.9753,-0.5494 1.4425,-0.7924 1.1698,-0.6086 2.1522,-1.3016 2.3393,-1.6512 0.1807,-0.3376 0.1847,-10.5785 0.01,-11.7173 -0.1178,-0.7442 1e-4,-1.0128 0.4533,-1.0128 z"
       id="path9691"
       inkscape:connector-curvature="0" />
  </g>
</svg>
